<?xml version="1.0" encoding="UTF-8" standalone="no"?>
<svg
   xmlns:dc="http://purl.org/dc/elements/1.1/"
   xmlns:cc="http://creativecommons.org/ns#"
   xmlns:rdf="http://www.w3.org/1999/02/22-rdf-syntax-ns#"
   xmlns:svg="http://www.w3.org/2000/svg"
   xmlns="http://www.w3.org/2000/svg"
   xmlns:sodipodi="http://sodipodi.sourceforge.net/DTD/sodipodi-0.dtd"
   xmlns:inkscape="http://www.inkscape.org/namespaces/inkscape"
   width="210mm"
   height="297mm"
   viewBox="0 0 210 297"
   version="1.1"
   id="svg8"
   inkscape:version="1.0.2-2 (e86c870879, 2021-01-15)"
   sodipodi:docname="artificer.svg">
  <defs
     id="defs2">
    <clipPath
       clipPathUnits="userSpaceOnUse"
       id="clipPath851">
      <path
         d="M 0,2020 H 2020 V 0 H 0 Z"
         id="path849" />
    </clipPath>
    <clipPath
       clipPathUnits="userSpaceOnUse"
       id="clipPath895">
      <path
         d="M 0,2020 H 2020 V 0 H 0 Z"
         id="path893" />
    </clipPath>
    <clipPath
       clipPathUnits="userSpaceOnUse"
       id="clipPath1014">
      <path
         d="M 0,2020 H 2020 V 0 H 0 Z"
         id="path1012" />
    </clipPath>
    <clipPath
       clipPathUnits="userSpaceOnUse"
       id="clipPath1038">
      <path
         d="M 0,2020 H 2020 V 0 H 0 Z"
         id="path1036" />
    </clipPath>
    <clipPath
       clipPathUnits="userSpaceOnUse"
       id="clipPath1153">
      <path
         d="M 0,2020 H 2020 V 0 H 0 Z"
         id="path1151" />
    </clipPath>
    <clipPath
       clipPathUnits="userSpaceOnUse"
       id="clipPath1181">
      <path
         d="M 0,2020 H 2020 V 0 H 0 Z"
         id="path1179" />
    </clipPath>
    <clipPath
       clipPathUnits="userSpaceOnUse"
       id="clipPath1284">
      <path
         d="M 0,2020 H 2020 V 0 H 0 Z"
         id="path1282" />
    </clipPath>
    <clipPath
       clipPathUnits="userSpaceOnUse"
       id="clipPath1304">
      <path
         d="M 0,2020 H 2020 V 0 H 0 Z"
         id="path1302" />
    </clipPath>
    <clipPath
       clipPathUnits="userSpaceOnUse"
       id="clipPath1423">
      <path
         d="M 0,2020 H 2020 V 0 H 0 Z"
         id="path1421" />
    </clipPath>
    <clipPath
       clipPathUnits="userSpaceOnUse"
       id="clipPath1435">
      <path
         d="M 0,2020 H 2020 V 0 H 0 Z"
         id="path1433" />
    </clipPath>
    <clipPath
       clipPathUnits="userSpaceOnUse"
       id="clipPath1530">
      <path
         d="M 0,2020 H 2020 V 0 H 0 Z"
         id="path1528" />
    </clipPath>
    <clipPath
       clipPathUnits="userSpaceOnUse"
       id="clipPath1550">
      <path
         d="M 0,2020 H 2020 V 0 H 0 Z"
         id="path1548" />
    </clipPath>
    <clipPath
       clipPathUnits="userSpaceOnUse"
       id="clipPath1645">
      <path
         d="M 0,2020 H 2020 V 0 H 0 Z"
         id="path1643" />
    </clipPath>
    <clipPath
       clipPathUnits="userSpaceOnUse"
       id="clipPath1705">
      <path
         d="M 0,2020 H 2020 V 0 H 0 Z"
         id="path1703" />
    </clipPath>
    <clipPath
       clipPathUnits="userSpaceOnUse"
       id="clipPath1848">
      <path
         d="M 0,2020 H 2020 V 0 H 0 Z"
         id="path1846" />
    </clipPath>
    <clipPath
       clipPathUnits="userSpaceOnUse"
       id="clipPath1888">
      <path
         d="M 0,2020 H 2020 V 0 H 0 Z"
         id="path1886" />
    </clipPath>
    <clipPath
       clipPathUnits="userSpaceOnUse"
       id="clipPath2011">
      <path
         d="M 0,2020 H 2020 V 0 H 0 Z"
         id="path2009" />
    </clipPath>
    <clipPath
       clipPathUnits="userSpaceOnUse"
       id="clipPath2027">
      <path
         d="M 0,2020 H 2020 V 0 H 0 Z"
         id="path2025" />
    </clipPath>
    <clipPath
       clipPathUnits="userSpaceOnUse"
       id="clipPath2110">
      <path
         d="M 0,2020 H 2020 V 0 H 0 Z"
         id="path2108" />
    </clipPath>
    <clipPath
       clipPathUnits="userSpaceOnUse"
       id="clipPath2130">
      <path
         d="M 0,2020 H 2020 V 0 H 0 Z"
         id="path2128" />
    </clipPath>
    <clipPath
       clipPathUnits="userSpaceOnUse"
       id="clipPath2209">
      <path
         d="M 0,2020 H 2020 V 0 H 0 Z"
         id="path2207" />
    </clipPath>
    <clipPath
       clipPathUnits="userSpaceOnUse"
       id="clipPath2237">
      <path
         d="M 0,2020 H 2020 V 0 H 0 Z"
         id="path2235" />
    </clipPath>
    <clipPath
       clipPathUnits="userSpaceOnUse"
       id="clipPath2332">
      <path
         d="M 0,2020 H 2020 V 0 H 0 Z"
         id="path2330" />
    </clipPath>
    <clipPath
       clipPathUnits="userSpaceOnUse"
       id="clipPath2384">
      <path
         d="M 0,2020 H 2020 V 0 H 0 Z"
         id="path2382" />
    </clipPath>
    <clipPath
       clipPathUnits="userSpaceOnUse"
       id="clipPath2495">
      <path
         d="M 0,2020 H 2020 V 0 H 0 Z"
         id="path2493" />
    </clipPath>
    <clipPath
       clipPathUnits="userSpaceOnUse"
       id="clipPath2543">
      <path
         d="M 0,2020 H 2020 V 0 H 0 Z"
         id="path2541" />
    </clipPath>
  </defs>
  <sodipodi:namedview
     id="base"
     pagecolor="#ffffff"
     bordercolor="#666666"
     borderopacity="1.0"
     inkscape:pageopacity="0.0"
     inkscape:pageshadow="2"
     inkscape:zoom="0.35355339"
     inkscape:cx="749.19281"
     inkscape:cy="531.27469"
     inkscape:document-units="mm"
     inkscape:current-layer="layer1"
     inkscape:document-rotation="0"
     showgrid="false"
     inkscape:window-width="1858"
     inkscape:window-height="1057"
     inkscape:window-x="54"
     inkscape:window-y="-8"
     inkscape:window-maximized="1" />
  <metadata
     id="metadata5">
    <rdf:RDF>
      <cc:Work
         rdf:about="">
        <dc:format>image/svg+xml</dc:format>
        <dc:type
           rdf:resource="http://purl.org/dc/dcmitype/StillImage" />
        <dc:title></dc:title>
      </cc:Work>
    </rdf:RDF>
  </metadata>
  <g
     inkscape:label="Layer 1"
     inkscape:groupmode="layer"
     id="layer1">
    <g
       id="g2489"
       transform="matrix(0.18551646,0,0,-0.18551646,-82.376876,292.37167)">
      <g
         id="g2491"
         clip-path="url(#clipPath2495)">
        <g
           id="g2497"
           transform="translate(1010.0278,647.6367)">
          <path
             d="m 0,0 c -200.127,0 -362.363,162.235 -362.363,362.363 0,200.128 162.236,362.364 362.363,362.364 200.127,0 362.363,-162.236 362.363,-362.364 C 362.363,162.235 200.127,0 0,0 m 558.165,285.652 c 0,0 7.823,27.368 7.823,76.711 0,42.538 -7.823,76.711 -7.823,76.711 l -127.377,25.652 c -11.02,46.553 -29.391,90.257 -53.819,129.832 l 71.956,108.246 c 0,0 -13.82,24.882 -48.711,59.773 -30.08,30.079 -59.774,48.711 -59.774,48.711 L 232.194,739.332 c -39.575,24.429 -83.279,42.799 -129.832,53.819 L 76.711,920.528 c 0,0 -27.367,7.823 -76.711,7.823 -42.538,0 -76.71,-7.823 -76.71,-7.823 l -25.653,-127.377 c -46.553,-11.02 -90.257,-29.39 -129.831,-53.819 l -108.246,71.956 c 0,0 -24.882,-13.819 -59.773,-48.711 -30.079,-30.079 -48.712,-59.773 -48.712,-59.773 l 71.955,-108.246 c -24.427,-39.575 -42.798,-83.279 -53.819,-129.832 l -127.376,-25.652 c 0,0 -7.822,-27.366 -7.822,-76.711 0,-42.538 7.822,-76.711 7.822,-76.711 l 127.376,-25.65 c 11.021,-46.554 29.392,-90.258 53.819,-129.833 L -448.925,21.924 c 0,0 13.82,-24.882 48.712,-59.775 30.079,-30.078 59.773,-48.71 59.773,-48.71 l 108.246,71.955 c 39.574,-24.428 83.278,-42.798 129.831,-53.818 l 25.653,-127.377 c 0,0 27.366,-7.823 76.71,-7.823 42.538,0 76.711,7.823 76.711,7.823 l 25.651,127.377 c 46.553,11.02 90.257,29.39 129.832,53.818 L 340.44,-86.561 c 0,0 24.882,13.82 59.774,48.71 30.078,30.08 48.711,59.775 48.711,59.775 l -71.956,108.245 c 24.428,39.575 42.799,83.279 53.819,129.833 z"
             style="fill:#a68d67;fill-opacity:1;fill-rule:nonzero;stroke:none"
             id="path2499" />
        </g>
        <g
           id="g2501"
           transform="translate(1107.96,964.5293)">
          <path
             d="M 0,0 174.689,40.247 V 50.693 L 0,90.942 c -29.065,6.697 -51.597,29.662 -57.74,58.849 l -34.947,166.05 h -10.49 l -34.948,-166.05 c -6.143,-29.187 -28.674,-52.152 -57.739,-58.849 L -370.554,50.693 V 40.247 L -195.865,0 c 29.066,-6.696 51.597,-29.661 57.74,-58.849 l 34.948,-166.049 h 10.49 L -57.74,-58.849 C -51.597,-29.661 -29.065,-6.696 0,0"
             style="fill:#a68d67;fill-opacity:1;fill-rule:nonzero;stroke:none"
             id="path2503" />
        </g>
        <g
           id="g2505"
           transform="translate(1157.2158,1086.04)">
          <path
             d="M 0,0 54.068,-12.458 C 33.088,53.798 -19.767,105.983 -86.414,126.063 L -75.305,73.28 C -42.978,57.655 -16.502,31.813 0,0"
             style="fill:#a68d67;fill-opacity:1;fill-rule:nonzero;stroke:none"
             id="path2507" />
        </g>
        <g
           id="g2509"
           transform="translate(1081.9111,860.6797)">
          <path
             d="m 0,0 -11.109,-52.783 c 66.647,20.08 119.502,72.265 140.482,138.521 L 75.305,73.281 C 58.802,41.468 32.326,15.626 0,0"
             style="fill:#a68d67;fill-opacity:1;fill-rule:nonzero;stroke:none"
             id="path2511" />
        </g>
        <g
           id="g2513"
           transform="translate(949.2534,807.8965)">
          <path
             d="m 0,0 -11.109,52.784 c -32.326,15.626 -58.802,41.467 -75.304,73.28 l -54.068,12.457 C -119.501,72.266 -66.647,20.08 0,0"
             style="fill:#a68d67;fill-opacity:1;fill-rule:nonzero;stroke:none"
             id="path2515" />
        </g>
        <g
           id="g2517"
           transform="translate(862.8403,1086.04)">
          <path
             d="m 0,0 c 16.502,31.812 42.978,57.654 75.304,73.279 l 11.109,52.784 C 19.766,105.982 -33.088,53.798 -54.068,-12.458 Z"
             style="fill:#a68d67;fill-opacity:1;fill-rule:nonzero;stroke:none"
             id="path2519" />
        </g>
        <g
           id="g2521"
           transform="translate(1046.772,1326.2803)">
          <path
             d="m 0,0 9.934,-47.2 c 112.805,-19.511 202.128,-108.453 222.182,-221.074 l 47.382,-10.917 C 262.47,-133.086 146.152,-16.871 0,0"
             style="fill:#a68d67;fill-opacity:1;fill-rule:nonzero;stroke:none"
             id="path2523" />
        </g>
        <g
           id="g2525"
           transform="translate(963.3496,1279.0801)">
          <path
             d="M 0,0 9.934,47.2 C -136.218,30.328 -252.535,-85.886 -269.563,-231.991 l 47.381,10.917 C -202.128,-108.453 -112.805,-19.511 0,0"
             style="fill:#a68d67;fill-opacity:1;fill-rule:nonzero;stroke:none"
             id="path2527" />
        </g>
        <g
           id="g2529"
           transform="translate(1056.7056,740.9199)">
          <path
             d="M 0,0 -9.934,-47.2 C 136.218,-30.328 252.535,85.886 269.563,231.991 L 222.182,221.074 C 202.128,108.454 112.805,19.511 0,0"
             style="fill:#a68d67;fill-opacity:1;fill-rule:nonzero;stroke:none"
             id="path2531" />
        </g>
        <g
           id="g2533"
           transform="translate(741.168,961.9941)">
          <path
             d="m 0,0 -47.381,10.917 c 17.028,-146.105 133.345,-262.319 279.496,-279.191 l -9.933,47.2 C 109.377,-201.562 20.054,-112.62 0,0"
             style="fill:#a68d67;fill-opacity:1;fill-rule:nonzero;stroke:none"
             id="path2535" />
        </g>
      </g>
    </g>
  </g>
</svg>
