<?xml version="1.0" encoding="UTF-8" standalone="no"?>
<svg
   xmlns:dc="http://purl.org/dc/elements/1.1/"
   xmlns:cc="http://creativecommons.org/ns#"
   xmlns:rdf="http://www.w3.org/1999/02/22-rdf-syntax-ns#"
   xmlns:svg="http://www.w3.org/2000/svg"
   xmlns="http://www.w3.org/2000/svg"
   xmlns:sodipodi="http://sodipodi.sourceforge.net/DTD/sodipodi-0.dtd"
   xmlns:inkscape="http://www.inkscape.org/namespaces/inkscape"
   width="210mm"
   height="297mm"
   viewBox="0 0 210 297"
   version="1.1"
   id="svg8"
   inkscape:version="1.0.2-2 (e86c870879, 2021-01-15)"
   sodipodi:docname="barbarian.svg">
  <defs
     id="defs2">
    <clipPath
       clipPathUnits="userSpaceOnUse"
       id="clipPath851">
      <path
         d="M 0,2020 H 2020 V 0 H 0 Z"
         id="path849" />
    </clipPath>
    <clipPath
       clipPathUnits="userSpaceOnUse"
       id="clipPath895">
      <path
         d="M 0,2020 H 2020 V 0 H 0 Z"
         id="path893" />
    </clipPath>
    <clipPath
       clipPathUnits="userSpaceOnUse"
       id="clipPath1014">
      <path
         d="M 0,2020 H 2020 V 0 H 0 Z"
         id="path1012" />
    </clipPath>
    <clipPath
       clipPathUnits="userSpaceOnUse"
       id="clipPath1038">
      <path
         d="M 0,2020 H 2020 V 0 H 0 Z"
         id="path1036" />
    </clipPath>
    <clipPath
       clipPathUnits="userSpaceOnUse"
       id="clipPath1153">
      <path
         d="M 0,2020 H 2020 V 0 H 0 Z"
         id="path1151" />
    </clipPath>
    <clipPath
       clipPathUnits="userSpaceOnUse"
       id="clipPath1181">
      <path
         d="M 0,2020 H 2020 V 0 H 0 Z"
         id="path1179" />
    </clipPath>
    <clipPath
       clipPathUnits="userSpaceOnUse"
       id="clipPath1284">
      <path
         d="M 0,2020 H 2020 V 0 H 0 Z"
         id="path1282" />
    </clipPath>
    <clipPath
       clipPathUnits="userSpaceOnUse"
       id="clipPath1304">
      <path
         d="M 0,2020 H 2020 V 0 H 0 Z"
         id="path1302" />
    </clipPath>
  </defs>
  <sodipodi:namedview
     id="base"
     pagecolor="#ffffff"
     bordercolor="#666666"
     borderopacity="1.0"
     inkscape:pageopacity="0.0"
     inkscape:pageshadow="2"
     inkscape:zoom="0.35355339"
     inkscape:cx="749.19281"
     inkscape:cy="531.27469"
     inkscape:document-units="mm"
     inkscape:current-layer="layer1"
     inkscape:document-rotation="0"
     showgrid="false"
     inkscape:window-width="1858"
     inkscape:window-height="1057"
     inkscape:window-x="54"
     inkscape:window-y="-8"
     inkscape:window-maximized="1" />
  <metadata
     id="metadata5">
    <rdf:RDF>
      <cc:Work
         rdf:about="">
        <dc:format>image/svg+xml</dc:format>
        <dc:type
           rdf:resource="http://purl.org/dc/dcmitype/StillImage" />
        <dc:title></dc:title>
      </cc:Work>
    </rdf:RDF>
  </metadata>
  <g
     inkscape:label="Layer 1"
     inkscape:groupmode="layer"
     id="layer1">
    <g
       id="g1278"
       transform="matrix(0.21816414,0,0,-0.21816414,-120.25541,349.07074)">
      <g
         id="g1280"
         clip-path="url(#clipPath1284)">
        <g
           id="g1286"
           transform="translate(1138.4053,1155.2632)">
          <path
             d="m 0,0 v 89.781 l 67.432,37.637 c 2.878,1.605 6.119,-1.433 4.701,-4.408 L 33.891,42.809 72.761,-24.672 c -1.694,-1.936 -1.668,-1.906 -3.362,-3.841 z m -211.803,0 -69.399,-28.513 c -1.694,1.935 -1.668,1.905 -3.361,3.841 l 38.87,67.481 -38.242,80.201 c -1.419,2.975 1.823,6.013 4.701,4.408 l 67.431,-37.637 z m 355.717,-300.306 c 0,0 229.727,124.908 231.474,403.549 l -94.336,20.963 85.6,74.246 c 0,0 -48.041,172.949 -214.003,246.322 L 119.457,282.306 -1.738,205.807 v -24.491 c 0,-24.3 -6.07,-33.351 -24.895,-38.057 v 66.534 l -79.268,69.893 -79.269,-69.893 v -66.534 c -18.825,4.706 -24.894,13.757 -24.894,38.057 v 24.491 l -121.196,76.499 -33.192,162.468 C -530.414,371.401 -578.455,198.452 -578.455,198.452 l 85.601,-74.246 -94.336,-20.963 c 1.747,-278.641 231.473,-403.549 231.473,-403.549 l 71.625,180.811 74.246,28.825 0.273,21.205 c 0.819,27.163 24.403,23.397 24.403,23.397 v -60.069 l 39.089,-22.093 v -267.286 l -27.109,-16.682 c -0.312,-4.022 -0.431,-5.561 -0.743,-9.582 l 23.484,-20.03 v -193.04 l -35.813,-41.053 6.989,-13.102 h 27.077 l 46.295,-46.295 46.295,46.295 h 27.078 l 6.987,13.102 -35.813,41.053 v 193.04 l 23.484,20.03 c -0.312,4.021 -0.431,5.56 -0.742,9.582 l -27.11,16.682 v 267.286 l 39.089,22.093 v 60.069 c 0,0 23.584,3.766 24.404,-23.397 l 0.272,-21.205 74.246,-28.825 z"
             style="fill:#a68d67;fill-opacity:1;fill-rule:nonzero;stroke:none"
             id="path1288" />
        </g>
        <g
           id="g1290"
           transform="translate(1413.5908,852.437)">
          <path
             d="m 0,0 c -39.924,-48.831 -175.59,-220.945 -213.781,-269.435 2.922,-4.711 2.959,-4.77 5.881,-9.481 l 93.225,19.391 1.747,-85.601 L 35.564,-166.062 -66.633,-192.266 5.065,-2.95 C 2.153,-1.254 2.912,-1.696 0,0"
             style="fill:#a68d67;fill-opacity:1;fill-rule:nonzero;stroke:none"
             id="path1292" />
        </g>
        <g
           id="g1294"
           transform="translate(646.3516,849.4868)">
          <path
             d="m 0,0 71.699,-189.316 -102.198,26.204 148.492,-179.064 1.747,85.601 93.226,-19.39 c 2.922,4.71 2.959,4.77 5.881,9.481 C 180.654,-217.994 44.988,-45.879 5.065,2.951 2.153,1.254 2.912,1.696 0,0"
             style="fill:#a68d67;fill-opacity:1;fill-rule:nonzero;stroke:none"
             id="path1296" />
        </g>
      </g>
    </g>
  </g>
</svg>
