<?xml version="1.0" encoding="UTF-8" standalone="no"?>
<svg
   xmlns:dc="http://purl.org/dc/elements/1.1/"
   xmlns:cc="http://creativecommons.org/ns#"
   xmlns:rdf="http://www.w3.org/1999/02/22-rdf-syntax-ns#"
   xmlns:svg="http://www.w3.org/2000/svg"
   xmlns="http://www.w3.org/2000/svg"
   xmlns:sodipodi="http://sodipodi.sourceforge.net/DTD/sodipodi-0.dtd"
   xmlns:inkscape="http://www.inkscape.org/namespaces/inkscape"
   width="210mm"
   height="297mm"
   viewBox="0 0 210 297"
   version="1.1"
   id="svg8"
   inkscape:version="1.0.2-2 (e86c870879, 2021-01-15)"
   sodipodi:docname="cleric.svg">
  <defs
     id="defs2">
    <clipPath
       clipPathUnits="userSpaceOnUse"
       id="clipPath851">
      <path
         d="M 0,2020 H 2020 V 0 H 0 Z"
         id="path849" />
    </clipPath>
    <clipPath
       clipPathUnits="userSpaceOnUse"
       id="clipPath895">
      <path
         d="M 0,2020 H 2020 V 0 H 0 Z"
         id="path893" />
    </clipPath>
  </defs>
  <sodipodi:namedview
     id="base"
     pagecolor="#ffffff"
     bordercolor="#666666"
     borderopacity="1.0"
     inkscape:pageopacity="0.0"
     inkscape:pageshadow="2"
     inkscape:zoom="0.35355339"
     inkscape:cx="749.19281"
     inkscape:cy="531.27469"
     inkscape:document-units="mm"
     inkscape:current-layer="layer1"
     inkscape:document-rotation="0"
     showgrid="false"
     inkscape:window-width="1858"
     inkscape:window-height="1057"
     inkscape:window-x="54"
     inkscape:window-y="-8"
     inkscape:window-maximized="1" />
  <metadata
     id="metadata5">
    <rdf:RDF>
      <cc:Work
         rdf:about="">
        <dc:format>image/svg+xml</dc:format>
        <dc:type
           rdf:resource="http://purl.org/dc/dcmitype/StillImage" />
        <dc:title></dc:title>
      </cc:Work>
    </rdf:RDF>
  </metadata>
  <g
     inkscape:label="Layer 1"
     inkscape:groupmode="layer"
     id="layer1">
    <g
       id="g845"
       transform="matrix(0.17303251,0,0,-0.17284128,-69.76283,279.20054)">
      <g
         id="g847"
         clip-path="url(#clipPath851)">
        <g
           id="g853"
           transform="translate(1124.1724,642.7925)">
          <path
             d="M 0,0 -4.207,8.2 C -48.021,-5.703 -90.034,-9.582 -125.392,-9.023 -155.426,-7.708 -189.122,-2.91 -224.138,8.2 L -228.345,0 c 0,0 110.739,-75.341 110.739,-242.422 h 7.658 C -109.948,-75.341 0,0 0,0"
             style="fill:#a68d67;fill-opacity:1;fill-rule:nonzero;stroke:none"
             id="path855" />
        </g>
        <g
           id="g857"
           transform="translate(645.5996,893.3462)">
          <path
             d="M 0,0 8.2,4.207 C -5.703,48.021 -9.582,90.034 -9.023,125.392 -7.708,155.426 -2.91,189.122 8.2,224.138 L 0,228.345 c 0,0 -75.341,-110.739 -242.422,-110.739 v -7.658 C -75.341,109.948 0,0 0,0"
             style="fill:#a68d67;fill-opacity:1;fill-rule:nonzero;stroke:none"
             id="path859" />
        </g>
        <g
           id="g861"
           transform="translate(1374.4004,1121.6914)">
          <path
             d="M 0,0 -8.2,-4.207 C 5.703,-48.021 9.582,-90.034 9.023,-125.392 7.708,-155.426 2.91,-189.122 -8.2,-224.138 l 8.2,-4.207 c 0,0 75.341,110.739 242.422,110.739 v 7.658 C 75.341,-109.948 0,0 0,0"
             style="fill:#a68d67;fill-opacity:1;fill-rule:nonzero;stroke:none"
             id="path863" />
        </g>
        <g
           id="g865"
           transform="translate(876.5518,1226.084)">
          <path
             d="M 0,0 V -87.88 H -81.371 L -345.012,226.211 Z"
             style="fill:#a68d67;fill-opacity:1;fill-rule:nonzero;stroke:none"
             id="path867" />
        </g>
        <g
           id="g869"
           transform="translate(788.6714,876.2241)">
          <path
             d="M 0,0 H 87.88 V -81.371 L -226.211,-345.012 Z"
             style="fill:#a68d67;fill-opacity:1;fill-rule:nonzero;stroke:none"
             id="path871" />
        </g>
        <g
           id="g873"
           transform="translate(1306.4775,1099.9766)">
          <path
             d="m 0,0 -37.835,-19.834 h -186.019 v 186.019 l 19.834,37.835 c 0,0 -27.158,9.154 -92.458,9.154 -54.315,0 -92.457,-9.154 -92.457,-9.154 l 19.834,-37.835 V -19.834 H -555.12 L -592.955,0 c 0,0 -9.154,-27.157 -9.154,-92.458 0,-54.314 9.154,-92.457 9.154,-92.457 l 37.835,19.834 h 186.019 V -351.1 l -19.834,-37.835 c 0,0 27.157,-9.154 92.457,-9.154 54.315,0 92.458,9.154 92.458,9.154 l -19.834,37.835 v 186.019 H -37.835 L 0,-184.915 c 0,0 9.154,27.158 9.154,92.457 C 9.154,-38.142 0,0 0,0"
             style="fill:#a68d67;fill-opacity:1;fill-rule:nonzero;stroke:none"
             id="path875" />
        </g>
        <g
           id="g877"
           transform="translate(1143.1255,1226.084)">
          <path
             d="M 0,0 V -87.88 H 81.371 L 345.012,226.211 Z"
             style="fill:#a68d67;fill-opacity:1;fill-rule:nonzero;stroke:none"
             id="path879" />
        </g>
        <g
           id="g881"
           transform="translate(1231.0059,876.2241)">
          <path
             d="M 0,0 H -87.88 V -81.371 L 226.211,-345.012 Z"
             style="fill:#a68d67;fill-opacity:1;fill-rule:nonzero;stroke:none"
             id="path883" />
        </g>
        <g
           id="g885"
           transform="translate(895.8276,1372.936)">
          <path
             d="M 0,0 4.207,-8.199 C 48.021,5.703 90.034,9.582 125.392,9.023 155.426,7.708 189.122,2.911 224.138,-8.199 L 228.345,0 c 0,0 -110.739,75.341 -110.739,242.422 h -7.658 C 109.948,75.341 0,0 0,0"
             style="fill:#a68d67;fill-opacity:1;fill-rule:nonzero;stroke:none"
             id="path887" />
        </g>
      </g>
    </g>
  </g>
</svg>
