<?xml version="1.0" encoding="UTF-8" standalone="no"?>
<svg
   xmlns:dc="http://purl.org/dc/elements/1.1/"
   xmlns:cc="http://creativecommons.org/ns#"
   xmlns:rdf="http://www.w3.org/1999/02/22-rdf-syntax-ns#"
   xmlns:svg="http://www.w3.org/2000/svg"
   xmlns="http://www.w3.org/2000/svg"
   xmlns:sodipodi="http://sodipodi.sourceforge.net/DTD/sodipodi-0.dtd"
   xmlns:inkscape="http://www.inkscape.org/namespaces/inkscape"
   width="210mm"
   height="297mm"
   viewBox="0 0 210 297"
   version="1.1"
   id="svg8"
   inkscape:version="1.0.2-2 (e86c870879, 2021-01-15)"
   sodipodi:docname="fighter.svg">
  <defs
     id="defs2">
    <clipPath
       clipPathUnits="userSpaceOnUse"
       id="clipPath851">
      <path
         d="M 0,2020 H 2020 V 0 H 0 Z"
         id="path849" />
    </clipPath>
    <clipPath
       clipPathUnits="userSpaceOnUse"
       id="clipPath895">
      <path
         d="M 0,2020 H 2020 V 0 H 0 Z"
         id="path893" />
    </clipPath>
    <clipPath
       clipPathUnits="userSpaceOnUse"
       id="clipPath1014">
      <path
         d="M 0,2020 H 2020 V 0 H 0 Z"
         id="path1012" />
    </clipPath>
    <clipPath
       clipPathUnits="userSpaceOnUse"
       id="clipPath1038">
      <path
         d="M 0,2020 H 2020 V 0 H 0 Z"
         id="path1036" />
    </clipPath>
    <clipPath
       clipPathUnits="userSpaceOnUse"
       id="clipPath1153">
      <path
         d="M 0,2020 H 2020 V 0 H 0 Z"
         id="path1151" />
    </clipPath>
    <clipPath
       clipPathUnits="userSpaceOnUse"
       id="clipPath1181">
      <path
         d="M 0,2020 H 2020 V 0 H 0 Z"
         id="path1179" />
    </clipPath>
    <clipPath
       clipPathUnits="userSpaceOnUse"
       id="clipPath1284">
      <path
         d="M 0,2020 H 2020 V 0 H 0 Z"
         id="path1282" />
    </clipPath>
    <clipPath
       clipPathUnits="userSpaceOnUse"
       id="clipPath1304">
      <path
         d="M 0,2020 H 2020 V 0 H 0 Z"
         id="path1302" />
    </clipPath>
    <clipPath
       clipPathUnits="userSpaceOnUse"
       id="clipPath1423">
      <path
         d="M 0,2020 H 2020 V 0 H 0 Z"
         id="path1421" />
    </clipPath>
    <clipPath
       clipPathUnits="userSpaceOnUse"
       id="clipPath1435">
      <path
         d="M 0,2020 H 2020 V 0 H 0 Z"
         id="path1433" />
    </clipPath>
    <clipPath
       clipPathUnits="userSpaceOnUse"
       id="clipPath1530">
      <path
         d="M 0,2020 H 2020 V 0 H 0 Z"
         id="path1528" />
    </clipPath>
    <clipPath
       clipPathUnits="userSpaceOnUse"
       id="clipPath1550">
      <path
         d="M 0,2020 H 2020 V 0 H 0 Z"
         id="path1548" />
    </clipPath>
    <clipPath
       clipPathUnits="userSpaceOnUse"
       id="clipPath1645">
      <path
         d="M 0,2020 H 2020 V 0 H 0 Z"
         id="path1643" />
    </clipPath>
    <clipPath
       clipPathUnits="userSpaceOnUse"
       id="clipPath1705">
      <path
         d="M 0,2020 H 2020 V 0 H 0 Z"
         id="path1703" />
    </clipPath>
  </defs>
  <sodipodi:namedview
     id="base"
     pagecolor="#ffffff"
     bordercolor="#666666"
     borderopacity="1.0"
     inkscape:pageopacity="0.0"
     inkscape:pageshadow="2"
     inkscape:zoom="0.35355339"
     inkscape:cx="749.19281"
     inkscape:cy="531.27469"
     inkscape:document-units="mm"
     inkscape:current-layer="layer1"
     inkscape:document-rotation="0"
     showgrid="false"
     inkscape:window-width="1858"
     inkscape:window-height="1057"
     inkscape:window-x="54"
     inkscape:window-y="-8"
     inkscape:window-maximized="1" />
  <metadata
     id="metadata5">
    <rdf:RDF>
      <cc:Work
         rdf:about="">
        <dc:format>image/svg+xml</dc:format>
        <dc:type
           rdf:resource="http://purl.org/dc/dcmitype/StillImage" />
        <dc:title></dc:title>
      </cc:Work>
    </rdf:RDF>
  </metadata>
  <g
     inkscape:label="Layer 1"
     inkscape:groupmode="layer"
     id="layer1">
    <g
       id="g1639"
       transform="matrix(0.1898161,0,0,-0.1898161,-89.423981,290.61393)">
      <g
         id="g1641"
         clip-path="url(#clipPath1645)">
        <g
           id="g1647"
           transform="translate(553.4961,1109.0493)">
          <path
             d="m 0,0 c -11.71,-41.857 -18.108,-85.91 -18.108,-131.455 0,-98.307 29.283,-189.856 79.439,-266.58 l 49.632,49.632 40.745,40.746 c -28.999,52.259 -45.575,112.321 -45.575,176.202 0,8.212 0.372,16.335 0.909,24.413 l -0.842,0.842 z"
             style="fill:#a68d67;fill-opacity:1;fill-rule:nonzero;stroke:none"
             id="path1649" />
        </g>
        <g
           id="g1651"
           transform="translate(998.2002,1340.9609)">
          <path
             d="m 0,0 c 8.536,0.601 17.124,1.016 25.811,1.016 8.401,0 16.709,-0.39 24.969,-0.952 l 106.958,106.958 c -41.998,11.796 -86.211,18.244 -131.927,18.244 -45.972,0 -90.424,-6.52 -132.633,-18.444 L -0.064,0.064 Z"
             style="fill:#a68d67;fill-opacity:1;fill-rule:nonzero;stroke:none"
             id="path1653" />
        </g>
        <g
           id="g1655"
           transform="translate(819.7168,977.5981)">
          <path
             d="M 0,0 C 0,-18.616 2.706,-36.561 7.371,-53.699 L 61.375,0.306 7.496,54.185 C 2.747,36.903 0,18.791 0,0"
             style="fill:#a68d67;fill-opacity:1;fill-rule:nonzero;stroke:none"
             id="path1657" />
        </g>
        <g
           id="g1659"
           transform="translate(1077.709,1174.521)">
          <path
             d="m 0,0 c -17.138,4.665 -35.083,7.371 -53.698,7.371 -19.212,0 -37.728,-2.84 -55.356,-7.798 L -54.74,-54.74 Z"
             style="fill:#a68d67;fill-opacity:1;fill-rule:nonzero;stroke:none"
             id="path1661" />
        </g>
        <g
           id="g1663"
           transform="translate(1188.5469,954.2021)">
          <path
             d="m 0,0 31.961,-31.961 c 4.959,17.627 7.798,36.145 7.798,55.357 0,19.055 -2.806,37.422 -7.686,54.92 L -23.121,23.122 -0.063,0.064 Z"
             style="fill:#a68d67;fill-opacity:1;fill-rule:nonzero;stroke:none"
             id="path1665" />
        </g>
        <g
           id="g1667"
           transform="translate(969.0908,780.9888)">
          <path
             d="m 0,0 c 17.498,-4.88 35.865,-7.686 54.92,-7.686 18.791,0 36.903,2.748 54.185,7.497 L 54.458,54.458 Z"
             style="fill:#a68d67;fill-opacity:1;fill-rule:nonzero;stroke:none"
             id="path1669" />
        </g>
        <g
           id="g1671"
           transform="translate(1205.9482,655.5312)">
          <path
             d="m 0,0 -4.162,4.162 c -52.627,-29.548 -113.246,-46.481 -177.775,-46.481 -64.066,0 -124.288,16.678 -176.652,45.834 l -51.353,-51.354 -39.005,-39.005 c 76.81,-50.328 168.519,-79.716 267.01,-79.716 98.949,0 191.061,29.649 268.089,80.408 L 0.706,-0.706 Z"
             style="fill:#a68d67;fill-opacity:1;fill-rule:nonzero;stroke:none"
             id="path1673" />
        </g>
        <g
           id="g1675"
           transform="translate(1420.4561,724.7007)">
          <path
             d="m 0,0 13.109,-13.109 c 49.927,76.607 79.069,167.94 79.069,266.003 0,45.801 -6.471,90.093 -18.308,132.161 L -33.036,278.149 c 0.576,-8.355 0.973,-16.757 0.973,-25.255 0,-63.635 -16.439,-123.484 -45.229,-175.601 L -0.769,0.769 Z"
             style="fill:#a68d67;fill-opacity:1;fill-rule:nonzero;stroke:none"
             id="path1677" />
        </g>
        <g
           id="g1679"
           transform="translate(1560.3643,1513.9507)">
          <path
             d="m 0,0 c -36.552,36.552 -68.588,3.059 -68.588,3.059 0,0 20.532,-9.466 41.357,-30.29 20.096,-20.096 30.29,-41.357 30.29,-41.357 0,0 33.493,32.037 -3.059,68.588"
             style="fill:#a68d67;fill-opacity:1;fill-rule:nonzero;stroke:none"
             id="path1681" />
        </g>
        <g
           id="g1683"
           transform="translate(1070.7803,1013.8813)">
          <path
             d="m 0,0 -14.417,-3.932 3.932,14.417 215.813,215.813 10.484,-10.485 z m 473.856,201.251 -84.169,-7.281 c -13.867,29.466 -35.603,58.624 -54.002,80.553 l 141.959,141.959 c 0,0 -9.466,20.532 -30.29,41.357 -16.457,16.455 -41.357,30.289 -41.357,30.289 L 264.038,346.169 c -21.93,18.4 -51.088,40.137 -80.554,54.003 l 7.282,84.17 -16.019,-0.291 L 14.307,323.61 c 0,0 65.373,-5.673 142.07,-54.811 l -590.334,-590.334 -39.318,-141.255 141.254,39.318 590.334,590.335 C 304.773,95.725 312.651,26.374 312.651,26.374 l 160.914,158.858 z"
             style="fill:#a68d67;fill-opacity:1;fill-rule:nonzero;stroke:none"
             id="path1685" />
        </g>
        <g
           id="g1687"
           transform="translate(556.7744,1517.0093)">
          <path
             d="m 0,0 c 0,0 -32.037,33.493 -68.588,-3.058 -36.552,-36.552 -3.058,-68.588 -3.058,-68.588 0,0 10.194,21.26 30.29,41.356 C -20.532,-9.466 0,0 0,0"
             style="fill:#a68d67;fill-opacity:1;fill-rule:nonzero;stroke:none"
             id="path1689" />
        </g>
        <g
           id="g1691"
           transform="translate(947.7227,1043.9297)">
          <path
             d="M 0,0 -185.765,185.765 -175.28,196.25 10.485,10.485 56.211,56.211 -126.329,238.75 c 76.698,49.138 142.07,54.812 142.07,54.812 l -160.44,160.44 -16.019,0.292 7.281,-84.17 c -29.465,-13.866 -58.624,-35.603 -80.553,-54.003 l -141.958,141.96 c 0,0 -24.902,-13.835 -41.357,-30.291 -20.825,-20.824 -30.291,-41.356 -30.291,-41.356 l 141.96,-141.959 c -18.399,-21.929 -40.136,-51.088 -54.003,-80.553 l -84.17,7.281 0.291,-16.019 160.914,-158.858 c 0,0 7.878,69.351 54.338,140.488 l 182.54,-182.54 0.523,0.522 z"
             style="fill:#a68d67;fill-opacity:1;fill-rule:nonzero;stroke:none"
             id="path1693" />
        </g>
        <g
           id="g1695"
           transform="translate(1451.0459,551.0918)">
          <path
             d="m 0,0 -39.318,141.254 -265.789,265.789 -85.435,-85.435 -0.769,-0.768 -15.733,-15.733 265.789,-265.789 z"
             style="fill:#a68d67;fill-opacity:1;fill-rule:nonzero;stroke:none"
             id="path1697" />
        </g>
      </g>
    </g>
  </g>
</svg>
