<?xml version="1.0" encoding="UTF-8" standalone="no"?>
<svg
   xmlns:dc="http://purl.org/dc/elements/1.1/"
   xmlns:cc="http://creativecommons.org/ns#"
   xmlns:rdf="http://www.w3.org/1999/02/22-rdf-syntax-ns#"
   xmlns:svg="http://www.w3.org/2000/svg"
   xmlns="http://www.w3.org/2000/svg"
   xmlns:sodipodi="http://sodipodi.sourceforge.net/DTD/sodipodi-0.dtd"
   xmlns:inkscape="http://www.inkscape.org/namespaces/inkscape"
   width="210mm"
   height="297mm"
   viewBox="0 0 210 297"
   version="1.1"
   id="svg8"
   inkscape:version="1.0.2-2 (e86c870879, 2021-01-15)"
   sodipodi:docname="warlock.svg">
  <defs
     id="defs2">
    <clipPath
       clipPathUnits="userSpaceOnUse"
       id="clipPath851">
      <path
         d="M 0,2020 H 2020 V 0 H 0 Z"
         id="path849" />
    </clipPath>
    <clipPath
       clipPathUnits="userSpaceOnUse"
       id="clipPath895">
      <path
         d="M 0,2020 H 2020 V 0 H 0 Z"
         id="path893" />
    </clipPath>
    <clipPath
       clipPathUnits="userSpaceOnUse"
       id="clipPath1014">
      <path
         d="M 0,2020 H 2020 V 0 H 0 Z"
         id="path1012" />
    </clipPath>
    <clipPath
       clipPathUnits="userSpaceOnUse"
       id="clipPath1038">
      <path
         d="M 0,2020 H 2020 V 0 H 0 Z"
         id="path1036" />
    </clipPath>
    <clipPath
       clipPathUnits="userSpaceOnUse"
       id="clipPath1153">
      <path
         d="M 0,2020 H 2020 V 0 H 0 Z"
         id="path1151" />
    </clipPath>
    <clipPath
       clipPathUnits="userSpaceOnUse"
       id="clipPath1181">
      <path
         d="M 0,2020 H 2020 V 0 H 0 Z"
         id="path1179" />
    </clipPath>
    <clipPath
       clipPathUnits="userSpaceOnUse"
       id="clipPath1284">
      <path
         d="M 0,2020 H 2020 V 0 H 0 Z"
         id="path1282" />
    </clipPath>
    <clipPath
       clipPathUnits="userSpaceOnUse"
       id="clipPath1304">
      <path
         d="M 0,2020 H 2020 V 0 H 0 Z"
         id="path1302" />
    </clipPath>
    <clipPath
       clipPathUnits="userSpaceOnUse"
       id="clipPath1423">
      <path
         d="M 0,2020 H 2020 V 0 H 0 Z"
         id="path1421" />
    </clipPath>
    <clipPath
       clipPathUnits="userSpaceOnUse"
       id="clipPath1435">
      <path
         d="M 0,2020 H 2020 V 0 H 0 Z"
         id="path1433" />
    </clipPath>
    <clipPath
       clipPathUnits="userSpaceOnUse"
       id="clipPath1530">
      <path
         d="M 0,2020 H 2020 V 0 H 0 Z"
         id="path1528" />
    </clipPath>
    <clipPath
       clipPathUnits="userSpaceOnUse"
       id="clipPath1550">
      <path
         d="M 0,2020 H 2020 V 0 H 0 Z"
         id="path1548" />
    </clipPath>
    <clipPath
       clipPathUnits="userSpaceOnUse"
       id="clipPath1645">
      <path
         d="M 0,2020 H 2020 V 0 H 0 Z"
         id="path1643" />
    </clipPath>
    <clipPath
       clipPathUnits="userSpaceOnUse"
       id="clipPath1705">
      <path
         d="M 0,2020 H 2020 V 0 H 0 Z"
         id="path1703" />
    </clipPath>
    <clipPath
       clipPathUnits="userSpaceOnUse"
       id="clipPath1848">
      <path
         d="M 0,2020 H 2020 V 0 H 0 Z"
         id="path1846" />
    </clipPath>
    <clipPath
       clipPathUnits="userSpaceOnUse"
       id="clipPath1888">
      <path
         d="M 0,2020 H 2020 V 0 H 0 Z"
         id="path1886" />
    </clipPath>
  </defs>
  <sodipodi:namedview
     id="base"
     pagecolor="#ffffff"
     bordercolor="#666666"
     borderopacity="1.0"
     inkscape:pageopacity="0.0"
     inkscape:pageshadow="2"
     inkscape:zoom="0.35355339"
     inkscape:cx="749.19281"
     inkscape:cy="531.27469"
     inkscape:document-units="mm"
     inkscape:current-layer="layer1"
     inkscape:document-rotation="0"
     showgrid="false"
     inkscape:window-width="1858"
     inkscape:window-height="1057"
     inkscape:window-x="54"
     inkscape:window-y="-8"
     inkscape:window-maximized="1" />
  <metadata
     id="metadata5">
    <rdf:RDF>
      <cc:Work
         rdf:about="">
        <dc:format>image/svg+xml</dc:format>
        <dc:type
           rdf:resource="http://purl.org/dc/dcmitype/StillImage" />
        <dc:title></dc:title>
      </cc:Work>
    </rdf:RDF>
  </metadata>
  <g
     inkscape:label="Layer 1"
     inkscape:groupmode="layer"
     id="layer1">
    <g
       id="g1842"
       transform="matrix(0.17269765,0,0,-0.17269765,-73.310998,291.9254)">
      <g
         id="g1844"
         clip-path="url(#clipPath1848)">
        <g
           id="g1850"
           transform="translate(672.4648,1169.459)">
          <path
             d="m 0,0 -0.078,0.023 c 16.268,112.969 76.919,194.386 100.021,221.913 -2.017,2.509 -1.65,2.054 -3.669,4.563 C 8.751,183.941 -49.43,79.887 -49.43,79.887 c 9.832,102.006 80.459,190.311 115.07,228.008 -2.244,2.647 -1.593,1.878 -3.837,4.524 -124.551,-77.135 -206.429,-205.82 -214.45,-369.876 L -6.854,-39.066 C -5.226,-25.829 -2.958,-12.785 0,0"
             style="fill:#a68d67;fill-opacity:1;fill-rule:nonzero;stroke:none"
             id="path1852" />
        </g>
        <g
           id="g1854"
           transform="translate(903.1729,1159.9663)">
          <path
             d="m 0,0 119.508,-55.661 c 0,0 -1.637,-27.83 -31.105,-31.105 l 40.928,-134.241 40.928,134.241 c -29.468,3.275 -31.105,31.105 -31.105,31.105 L 258.662,0 c 76.398,-128.239 27.992,-193.318 -30.126,-225.835 -30.633,-17.14 -64.919,-25.709 -99.205,-25.709 -34.286,0 -68.572,8.569 -99.204,25.709 C -27.991,-193.318 -76.396,-128.239 0,0 m -18.008,-388.739 c 0,0 81.856,-228.445 111.322,-357.776 l 5.928,3.192 c 9.615,5.177 16.072,14.748 17.275,25.602 l 12.814,115.773 12.815,-115.773 c 1.202,-10.854 7.66,-20.425 17.274,-25.602 l 5.928,-3.192 c 29.466,129.331 111.322,357.776 111.322,357.776 76.943,197.341 203.08,217.269 203.08,217.269 l 257.58,68.333 c -7.084,12.145 -19.862,19.747 -33.915,20.201 -102.729,3.311 -211.31,17.478 -211.31,17.478 -103.798,13.123 -115.572,99.837 -115.572,99.837 l -47.476,262.883 c -27.83,159.746 34.379,233.156 34.379,233.156 C 225.92,489.491 243.928,260.298 243.928,260.298 L 257.024,83.492 c -63.701,57.201 -86.107,137.113 -92.634,167.596 -2.84,-0.011 -2.319,-0.009 -5.16,-0.021 L 129.331,119.508 99.432,251.067 c -2.841,0.012 -2.319,0.01 -5.16,0.021 C 87.746,220.605 65.339,140.693 1.638,83.492 l 13.096,176.806 c 0,0 18.008,229.193 -119.507,270.12 0,0 62.209,-73.41 34.378,-233.156 L -117.87,34.379 c 0,0 -11.775,-86.714 -115.573,-99.837 0,0 -108.58,-14.167 -211.31,-17.478 -14.053,-0.454 -26.831,-8.056 -33.915,-20.201 l 257.58,-68.333 c 0,0 126.138,-19.928 203.08,-217.269"
             style="fill:#a68d67;fill-opacity:1;fill-rule:nonzero;stroke:none"
             id="path1856" />
        </g>
        <g
           id="g1858"
           transform="translate(959.6533,1092.0273)">
          <path
             d="M 0,0 C -54.843,-33.97 -21.691,-117.871 -21.691,-117.871 H -27.83 C -84.72,-42.974 -32.742,16.78 -32.742,16.78 Z"
             style="fill:#a68d67;fill-opacity:1;fill-rule:nonzero;stroke:none"
             id="path1860" />
        </g>
        <g
           id="g1862"
           transform="translate(842.1719,766.8369)">
          <path
             d="m 0,0 c 13.901,-43.293 45.977,-139.137 63.534,-191.448 -195.185,50.457 -342.423,212.455 -378.211,414.431 l 162.06,-42.828 C -122.418,104.94 -68.473,41.727 0,0"
             style="fill:#a68d67;fill-opacity:1;fill-rule:nonzero;stroke:none"
             id="path1864" />
        </g>
        <g
           id="g1866"
           transform="translate(1005.4922,1542.4326)">
          <path
             d="m 0,0 c 0,41.132 27.012,86.561 27.012,86.561 0,0 27.011,-45.429 27.011,-86.561 0,-32.33 -27.011,-126.465 -27.011,-126.465 C 27.012,-126.465 0,-32.33 0,0"
             style="fill:#a68d67;fill-opacity:1;fill-rule:nonzero;stroke:none"
             id="path1868" />
        </g>
        <g
           id="g1870"
           transform="translate(1133.1855,974.1567)">
          <path
             d="m 0,0 h -6.14 c 0,0 33.152,83.901 -21.69,117.871 l 32.741,16.78 C 4.911,134.651 56.889,74.897 0,0"
             style="fill:#a68d67;fill-opacity:1;fill-rule:nonzero;stroke:none"
             id="path1872" />
        </g>
        <g
           id="g1874"
           transform="translate(1392.543,1169.459)">
          <path
             d="m 0,0 0.078,0.023 c -16.268,112.969 -76.919,194.386 -100.021,221.913 2.017,2.509 1.651,2.054 3.669,4.563 C -8.751,183.941 49.43,79.887 49.43,79.887 39.599,181.893 -31.029,270.198 -65.64,307.895 c 2.244,2.647 1.593,1.878 3.837,4.524 124.552,-77.135 206.429,-205.82 214.45,-369.876 L 6.854,-39.066 C 5.227,-25.829 2.958,-12.785 0,0"
             style="fill:#a68d67;fill-opacity:1;fill-rule:nonzero;stroke:none"
             id="path1876" />
        </g>
        <g
           id="g1878"
           transform="translate(1375.4531,946.9917)">
          <path
             d="m 0,0 162.06,42.829 c -35.789,-201.976 -183.026,-363.975 -378.211,-414.432 17.557,52.311 49.632,148.155 63.534,191.448 C -84.145,-138.428 -30.199,-75.214 0,0"
             style="fill:#a68d67;fill-opacity:1;fill-rule:nonzero;stroke:none"
             id="path1880" />
        </g>
      </g>
    </g>
  </g>
</svg>
